# xmcd CD database file
#
# Track frame offsets:
#	150
#	26620
#	50380
#	81562
#	116067
#	152537
#	166892
#	181735
#	208648
#	234524
#	254242
#	268737
#	290392
#	319760
#
# Disc length: 4686 seconds
#
# Revision: 0
# Processed by: cddbd v1.5.2PL0 Copyright (c) Steve Scherf et al.
# Submitted via: CDex 1.70beta2
#
DISCID=c5124c0e
DTITLE=Yusef Lateef - The Dreamer and Cry Tender
DYEAR=1900
DGENRE=Jazz
TTITLE0=Oboe Blues
TTITLE1=Angel Eyes
TTITLE2=The Dreamer
TTITLE3=Arjuna
TTITLE4=Can't Help Lovin' That Man
TTITLE5=Sea Breeze
TTITLE6=Dopolous
TTITLE7=Cry! Tender
TTITLE8=Butter's Blues
TTITLE9=Yesterday's
TTITLE10=The Snow is Green
TTITLE11=If You Could See Me Now
TTITLE12=Ecaps
TTITLE13=Ameena
EXTD=
EXTT0=
EXTT1=
EXTT2=
EXTT3=
EXTT4=
EXTT5=
EXTT6=
EXTT7=
EXTT8=
EXTT9=
EXTT10=
EXTT11=
EXTT12=
EXTT13=
PLAYORDER=
